<?xml version="1.0" encoding="UTF-8" standalone="no"?>
<!DOCTYPE svg PUBLIC "-//W3C//DTD SVG 1.1//EN" "http://www.w3.org/Graphics/SVG/1.1/DTD/svg11.dtd">
<svg width="100%" height="100%" viewBox="0 0 408 428" version="1.1" xmlns="http://www.w3.org/2000/svg" xmlns:xlink="http://www.w3.org/1999/xlink" xml:space="preserve" xmlns:serif="http://www.serif.com/" style="fill-rule:evenodd;clip-rule:evenodd;stroke-linejoin:round;stroke-miterlimit:2;">
    <g transform="matrix(1,0,0,1,-336.277,-326)">
        <g transform="matrix(0.527009,0,0,0.527009,287.036,803.241)">
            <path d="M213.435,-120L213.435,-446.714C181.923,-458.743 155.227,-478.264 133.352,-505.285C106.811,-538.071 93.435,-576.285 93.435,-620C93.435,-661.305 105.416,-697.903 129.186,-729.856C150.593,-758.633 177.565,-779.46 210.08,-792.366C227.326,-824.253 251.574,-850.539 282.877,-871.178C317.546,-894.037 356.568,-905.565 400,-905.565C426.802,-905.565 451.87,-900.91 475.226,-891.72C494.096,-884.296 511.556,-874.82 527.614,-863.307C530.347,-863.803 533.02,-864.268 535.633,-864.704C542.944,-865.922 551.064,-866.565 560,-866.565C611.31,-866.565 655.246,-848.323 691.784,-811.784C728.323,-775.246 746.565,-731.31 746.565,-680C746.565,-662.872 744.396,-646.527 740.114,-630.956C739.71,-629.486 739.287,-628.022 738.844,-626.565L760,-626.565C789.31,-626.565 814.412,-616.156 835.284,-595.284C856.156,-574.412 866.565,-549.31 866.565,-520L866.565,-280C866.565,-250.69 856.156,-225.588 835.284,-204.716C814.412,-183.844 789.31,-173.435 760,-173.435L706.565,-173.435L706.565,-120C706.565,-105.329 694.671,-93.435 680,-93.435L240,-93.435C225.329,-93.435 213.435,-105.329 213.435,-120ZM226.565,-620C226.565,-605.31 231.823,-592.746 242.284,-582.284C252.746,-571.823 265.31,-566.565 280,-566.565C294.217,-566.565 306.378,-571.09 316.374,-580.42C330.926,-594.002 345.958,-609.204 361.48,-626.019L361.508,-626.048C379.372,-645.342 399.55,-663.039 422.059,-679.117C447.038,-696.959 479.559,-706.565 520,-706.565L606.434,-706.564C604.106,-710.515 601.199,-714.232 597.716,-717.716C587.254,-728.177 574.69,-733.435 560,-733.435C547.115,-733.435 536.249,-732.037 527.487,-728.687L510.487,-722.187C501.481,-718.743 491.317,-720.45 483.929,-726.646L453.003,-752.583C447.05,-757.42 439.308,-762.032 429.894,-766.605C421.506,-770.679 411.504,-772.435 400,-772.435C383.901,-772.435 369.176,-768.193 355.844,-759.64C342.385,-751.007 332.125,-739.305 324.994,-724.597L311.073,-694.766C308.024,-688.234 302.453,-683.221 295.636,-680.878L263.636,-669.878C263.457,-669.816 263.277,-669.757 263.096,-669.699C252.01,-666.151 243.09,-659.904 236.439,-650.813C229.816,-641.763 226.565,-631.479 226.565,-620ZM706.565,-306.565L733.435,-306.565L733.435,-493.435L706.565,-493.435L706.565,-306.565ZM346.565,-226.565L573.435,-226.565L573.435,-573.435L520,-573.435C508.021,-573.435 498.01,-571.02 490.309,-565.031C479.2,-556.39 465.99,-543.684 450.596,-527.064C436.691,-511.774 420.541,-495.955 402.126,-479.624C386.253,-465.549 367.754,-454.296 346.565,-445.986L346.565,-226.565Z"/>
        </g>
    </g>
</svg>
