<?xml version="1.0" encoding="UTF-8" standalone="no"?>
<!DOCTYPE svg PUBLIC "-//W3C//DTD SVG 1.1//EN" "http://www.w3.org/Graphics/SVG/1.1/DTD/svg11.dtd">
<svg width="100%" height="100%" viewBox="0 0 21 20" version="1.1" xmlns="http://www.w3.org/2000/svg" xmlns:xlink="http://www.w3.org/1999/xlink" xml:space="preserve" xmlns:serif="http://www.serif.com/" style="fill-rule:evenodd;clip-rule:evenodd;stroke-linejoin:round;stroke-miterlimit:2;">
    <g transform="matrix(1,0,0,1,-600.303,-528.335)">
        <g transform="matrix(0.025,0,0,0.025,598.303,550.335)">
            <path d="M400,-121L400,-201L680,-201L680,-600L600,-600C581.333,-600 564.833,-594.167 550.5,-582.5C536.167,-570.833 522.667,-558.333 510,-545C494.667,-527.667 477.833,-512 459.5,-498C441.167,-484 421.333,-473.667 400,-467L400,-320L320,-320L320,-466C284.667,-475.333 255.833,-494 233.5,-522C211.167,-550 200,-583 200,-621C200,-655 210,-685.833 230,-713.5C250,-741.167 276.333,-760.667 309,-772C324.333,-805.333 347.333,-831.667 378,-851C408.667,-870.333 442.667,-880 480,-880C502,-880 523.167,-876.167 543.5,-868.5C563.833,-860.833 582.667,-849.667 600,-835C606.667,-836.333 613.167,-837.5 619.5,-838.5C625.833,-839.5 632.667,-840 640,-840C684,-840 721.667,-824.5 753,-793.5C784.333,-762.5 800,-724.667 800,-680C800,-666 798,-652.167 794,-638.5C790,-624.833 784.333,-612 777,-600L920,-602L920,-201L760,-201L760,-121L400,-121ZM360,-540C375.333,-540 389.167,-544.5 401.5,-553.5C413.833,-562.5 425.667,-572.667 437,-584L493,-641C507,-655 523.333,-665 542,-671C560.667,-677 580,-680 600,-680L719,-680C719,-702 711.167,-720.833 695.5,-736.5C679.833,-752.167 661,-760 639,-760C631,-760 623,-759.5 615,-758.5C607,-757.5 599.333,-755.333 592,-752L580,-748L549,-774C539.667,-782 529,-788.333 517,-793C505,-797.667 492.667,-800 480,-800C458.667,-800 439.167,-794.333 421.5,-783C403.833,-771.667 390.333,-756.333 381,-737L366,-706L334,-696C318,-690 305,-680.167 295,-666.5C285,-652.833 280,-637.333 280,-620C280,-598 287.667,-579.167 303,-563.5C318.333,-547.833 337.333,-540 360,-540ZM760,-281L840,-281L840,-521L760,-521L760,-281ZM160,-160L400,-160L400,-240L160,-240L160,-160ZM80,-80L80,-320L480,-320L480,-80L80,-80ZM160,-160L400,-160L160,-160Z" style="fill:rgb(31,31,31);fill-rule:nonzero;"/>
        </g>
    </g>
</svg>
