<?xml version="1.0" encoding="UTF-8" standalone="no"?>
<!DOCTYPE svg PUBLIC "-//W3C//DTD SVG 1.1//EN" "http://www.w3.org/Graphics/SVG/1.1/DTD/svg11.dtd">
<svg width="100%" height="100%" viewBox="0 0 20 20" version="1.1" xmlns="http://www.w3.org/2000/svg" xmlns:xlink="http://www.w3.org/1999/xlink" xml:space="preserve" xmlns:serif="http://www.serif.com/" style="fill-rule:evenodd;clip-rule:evenodd;stroke-linejoin:round;stroke-miterlimit:2;">
    <g transform="matrix(1,0,0,1,-615.089,-551.597)">
        <g transform="matrix(0.025,0,0,0.025,613.089,573.597)">
            <path d="M761.76,-425.455L880,-266L880,-80L80,-80L80,-266L430,-738L360,-832L424,-880L480,-805L536,-880L600,-832L530,-738L736.385,-459.675L736.385,-697.496C710.012,-672.835 678.929,-654.596 643.136,-642.779L643.136,-708.285C661.974,-714.45 682.439,-726.138 704.532,-743.349C726.624,-760.561 741.78,-780.641 750,-803.589L808.57,-803.589L808.57,-425.455L761.76,-425.455ZM378,-160L582,-160L480,-302L378,-160ZM680,-160L800,-160L800,-240L480,-671L160,-240L160,-160L280,-160L480,-440L680,-160Z" style="fill:rgb(31,31,31);"/>
        </g>
    </g>
</svg>
