<?xml version="1.0" encoding="UTF-8" standalone="no"?>
<!DOCTYPE svg PUBLIC "-//W3C//DTD SVG 1.1//EN" "http://www.w3.org/Graphics/SVG/1.1/DTD/svg11.dtd">
<svg width="100%" height="100%" viewBox="0 0 428 429" version="1.1" xmlns="http://www.w3.org/2000/svg" xmlns:xlink="http://www.w3.org/1999/xlink" xml:space="preserve" xmlns:serif="http://www.serif.com/" style="fill-rule:evenodd;clip-rule:evenodd;stroke-linejoin:round;stroke-miterlimit:2;">
    <g transform="matrix(1,0,0,1,-329.714,-318.156)">
        <g transform="matrix(0.5,0,0,0.5,303.714,772.156)">
            <path d="M832.102,-377.602L902.491,-282.678C906.069,-277.853 908,-272.006 908,-266L908,-80C908,-64.536 895.464,-52 880,-52L80,-52C64.536,-52 52,-64.536 52,-80L52,-266C52,-272.006 53.931,-277.853 57.509,-282.678L395.116,-737.965L337.543,-815.277C328.329,-827.649 330.859,-845.144 343.2,-854.4L407.2,-902.4C413.149,-906.862 420.629,-908.774 427.989,-907.714C435.35,-906.655 441.987,-902.711 446.436,-896.752L480,-851.8L513.564,-896.752C518.013,-902.711 524.65,-906.655 532.011,-907.714C539.371,-908.774 546.851,-906.862 552.8,-902.4L616.8,-854.4C629.141,-845.144 631.671,-827.649 622.457,-815.277L564.884,-737.965L761.527,-472.778L761.527,-683.239L683.949,-683.239C670.694,-683.239 659.949,-693.984 659.949,-707.239L659.949,-748.835C659.949,-761.188 669.327,-771.524 681.622,-772.722C716.091,-776.08 740.315,-780.888 753.926,-788.754C765.347,-795.355 771.566,-812.156 777.203,-836.779C779.7,-847.688 789.406,-855.423 800.598,-855.423L843.399,-855.423C856.654,-855.423 867.399,-844.678 867.399,-831.423L867.399,-401.602C867.399,-388.347 856.654,-377.602 843.399,-377.602L832.102,-377.602ZM432.588,-188L527.412,-188L480,-254.006L432.588,-188ZM265.591,-188L457.215,-456.275C462.471,-463.633 470.957,-468 480,-468C489.043,-468 497.529,-463.633 502.785,-456.275L694.409,-188L772,-188L772,-230.742L480,-624.029L188,-230.742L188,-188L265.591,-188Z"/>
        </g>
    </g>
</svg>
