<?xml version="1.0" encoding="UTF-8" standalone="no"?>
<!DOCTYPE svg PUBLIC "-//W3C//DTD SVG 1.1//EN" "http://www.w3.org/Graphics/SVG/1.1/DTD/svg11.dtd">
<svg width="100%" height="100%" viewBox="0 0 20 20" version="1.1" xmlns="http://www.w3.org/2000/svg" xmlns:xlink="http://www.w3.org/1999/xlink" xml:space="preserve" xmlns:serif="http://www.serif.com/" style="fill-rule:evenodd;clip-rule:evenodd;stroke-linejoin:round;stroke-miterlimit:2;">
    <g transform="matrix(1,0,0,1,-648.355,-551.597)">
        <g transform="matrix(0.025,0,0,0.025,646.355,573.597)">
            <path d="M80,-80L80,-266L430,-738L360,-832L424,-880L480,-805L536,-880L600,-832L530,-738L880,-266L880,-80L80,-80ZM480,-671L160,-240L160,-160L280,-160L480,-440L680,-160L800,-160L800,-240L480,-671ZM378,-160L582,-160L480,-302L378,-160ZM480,-440L680,-160L480,-440L280,-160L480,-440Z" style="fill:rgb(31,31,31);fill-rule:nonzero;"/>
        </g>
    </g>
</svg>
