<?xml version="1.0" encoding="UTF-8" standalone="no"?>
<!DOCTYPE svg PUBLIC "-//W3C//DTD SVG 1.1//EN" "http://www.w3.org/Graphics/SVG/1.1/DTD/svg11.dtd">
<svg width="100%" height="100%" viewBox="0 0 452 452" version="1.1" xmlns="http://www.w3.org/2000/svg" xmlns:xlink="http://www.w3.org/1999/xlink" xml:space="preserve" xmlns:serif="http://www.serif.com/" style="fill-rule:evenodd;clip-rule:evenodd;stroke-linejoin:round;stroke-miterlimit:2;">
    <g transform="matrix(1,0,0,1,-314,-314)">
        <g transform="matrix(0.583333,0,0,0.583333,236.667,820)">
            <path d="M132.571,-120L132.571,-200C132.571,-215.148 144.852,-227.429 160,-227.429L800,-227.429C815.148,-227.429 827.429,-215.148 827.429,-200L827.429,-120C827.429,-104.852 815.148,-92.571 800,-92.571L160,-92.571C144.852,-92.571 132.571,-104.852 132.571,-120ZM320,-252.571C268.453,-252.571 224.313,-270.897 187.605,-307.605C150.897,-344.313 132.571,-388.453 132.571,-440L132.571,-840C132.571,-855.148 144.852,-867.429 160,-867.429L800,-867.429C829.547,-867.429 854.854,-856.936 875.895,-835.895C896.936,-814.854 907.429,-789.547 907.429,-760L907.429,-640C907.429,-610.453 896.936,-585.146 875.895,-564.105C854.854,-543.064 829.547,-532.571 800,-532.571L747.429,-532.571L747.429,-440C747.429,-388.453 729.103,-344.313 692.395,-307.605C655.687,-270.897 611.547,-252.571 560,-252.571L320,-252.571ZM320,-387.429L560,-387.429C574.453,-387.429 586.813,-392.603 597.105,-402.895C607.397,-413.187 612.571,-425.547 612.571,-440L612.571,-732.571L267.429,-732.571L267.429,-440C267.429,-425.547 272.603,-413.187 282.895,-402.895C293.187,-392.603 305.547,-387.429 320,-387.429ZM747.429,-667.429L772.571,-667.429L772.571,-732.571L747.429,-732.571L747.429,-667.429Z"/>
        </g>
    </g>
</svg>
