<?xml version="1.0" encoding="UTF-8" standalone="no"?>
<!DOCTYPE svg PUBLIC "-//W3C//DTD SVG 1.1//EN" "http://www.w3.org/Graphics/SVG/1.1/DTD/svg11.dtd">
<svg width="100%" height="100%" viewBox="0 0 16 20" version="1.1" xmlns="http://www.w3.org/2000/svg" xmlns:xlink="http://www.w3.org/1999/xlink" xml:space="preserve" xmlns:serif="http://www.serif.com/" style="fill-rule:evenodd;clip-rule:evenodd;stroke-linejoin:round;stroke-miterlimit:2;">
    <g transform="matrix(1,0,0,1,-692.84,-551.753)">
        <g transform="matrix(0.025,0,0,0.025,688.84,573.753)">
            <path d="M160,-80L160,-880L800,-880L800,-800L720,-800L720,-680L320,-680L320,-800L240,-800L240,-160L402,-160C376.667,-178 356.667,-200.833 342,-228.5C327.333,-256.167 320,-286.667 320,-320L320,-520L720,-520L720,-320C720,-286.667 712.667,-256.167 698,-228.5C683.333,-200.833 663.333,-178 638,-160L800,-160L800,-80L160,-80ZM520,-200C553.333,-200 581.667,-211.667 605,-235C628.333,-258.333 640,-286.667 640,-320L640,-440L400,-440L400,-320C400,-286.667 411.667,-258.333 435,-235C458.333,-211.667 486.667,-200 520,-200ZM520,-560C531.333,-560 540.833,-563.833 548.5,-571.5C556.167,-579.167 560,-588.667 560,-600C560,-611.333 556.167,-620.833 548.5,-628.5C540.833,-636.167 531.333,-640 520,-640C508.667,-640 499.167,-636.167 491.5,-628.5C483.833,-620.833 480,-611.333 480,-600C480,-588.667 483.833,-579.167 491.5,-571.5C499.167,-563.833 508.667,-560 520,-560Z" style="fill:rgb(31,31,31);fill-rule:nonzero;"/>
        </g>
    </g>
</svg>
