<?xml version="1.0" encoding="UTF-8" standalone="no"?>
<!DOCTYPE svg PUBLIC "-//W3C//DTD SVG 1.1//EN" "http://www.w3.org/Graphics/SVG/1.1/DTD/svg11.dtd">
<svg width="100%" height="100%" viewBox="0 0 22 16" version="1.1" xmlns="http://www.w3.org/2000/svg" xmlns:xlink="http://www.w3.org/1999/xlink" xml:space="preserve" xmlns:serif="http://www.serif.com/" style="fill-rule:evenodd;clip-rule:evenodd;stroke-linejoin:round;stroke-miterlimit:2;">
    <g transform="matrix(1,0,0,1,-599.941,-530.335)">
        <g transform="matrix(0.025,0,0,0.025,598.791,550.335)">
            <path d="M46,-160L184,-436C190.667,-449.333 200.167,-460 212.5,-468C224.833,-476 238.667,-480 254,-480C270,-480 284.667,-475.833 298,-467.5C311.333,-459.167 321,-447.333 327,-432L354,-366C355.333,-362 358.333,-360.167 363,-360.5C367.667,-360.833 370.667,-363 372,-367L458,-654C467.333,-686 485.167,-711.667 511.5,-731C537.833,-750.333 567.667,-760 601,-760C633.667,-760 662.833,-750.5 688.5,-731.5C714.167,-712.5 732,-687.667 742,-657L915,-160L830,-160L666,-632C660.667,-647.333 652.333,-659.167 641,-667.5C629.667,-675.833 616.333,-680 601,-680C585.667,-680 572.167,-675.667 560.5,-667C548.833,-658.333 540.333,-646.333 535,-631L449,-344C443,-325.333 432.167,-310 416.5,-298C400.833,-286 383,-280 363,-280C345,-280 328.333,-284.833 313,-294.5C297.667,-304.167 286.667,-317.667 280,-335L253,-401L135,-160L46,-160ZM240,-560C206.667,-560 178.333,-571.833 155,-595.5C131.667,-619.167 120,-647.333 120,-680C120,-713.333 131.667,-741.667 155,-765C178.333,-788.333 206.667,-800 240,-800C273.333,-800 301.667,-788.333 325,-765C348.333,-741.667 360,-713.333 360,-680C360,-647.333 348.333,-619.167 325,-595.5C301.667,-571.833 273.333,-560 240,-560ZM240,-640C251.333,-640 260.833,-643.833 268.5,-651.5C276.167,-659.167 280,-668.667 280,-680C280,-691.333 276.167,-700.833 268.5,-708.5C260.833,-716.167 251.333,-720 240,-720C228.667,-720 219.167,-716.167 211.5,-708.5C203.833,-700.833 200,-691.333 200,-680C200,-668.667 203.833,-659.167 211.5,-651.5C219.167,-643.833 228.667,-640 240,-640Z" style="fill:rgb(31,31,31);fill-rule:nonzero;"/>
        </g>
    </g>
</svg>
