<?xml version="1.0" encoding="UTF-8" standalone="no"?>
<!DOCTYPE svg PUBLIC "-//W3C//DTD SVG 1.1//EN" "http://www.w3.org/Graphics/SVG/1.1/DTD/svg11.dtd">
<svg width="100%" height="100%" viewBox="0 0 572 428" version="1.1" xmlns="http://www.w3.org/2000/svg" xmlns:xlink="http://www.w3.org/1999/xlink" xml:space="preserve" xmlns:serif="http://www.serif.com/" style="fill-rule:evenodd;clip-rule:evenodd;stroke-linejoin:round;stroke-miterlimit:2;">
    <g transform="matrix(1,0,0,1,-254.437,-326)">
        <g transform="matrix(0.625,0,0,0.625,239.688,840)">
            <path d="M360.952,-408.167L436.513,-660.33C447.283,-697.212 467.887,-726.769 498.244,-749.056C528.481,-771.256 562.724,-782.4 601,-782.4C638.648,-782.4 672.247,-771.401 701.828,-749.504C731.248,-727.725 751.726,-699.286 763.225,-664.162L936.155,-167.364C938.539,-160.514 937.46,-152.934 933.258,-147.023C929.056,-141.111 922.253,-137.6 915,-137.6L830,-137.6C820.463,-137.6 811.971,-143.639 808.841,-152.648L644.843,-624.642C641.141,-635.286 635.598,-643.669 627.73,-649.453C620.173,-655.01 611.224,-657.6 601,-657.6C590.738,-657.6 581.666,-654.819 573.858,-649.019C565.79,-643.025 560.06,-634.634 556.308,-624.071L470.457,-337.57L470.325,-337.145C462.901,-314.047 449.507,-295.066 430.121,-280.217C410.463,-265.16 388.096,-257.6 363,-257.6C340.701,-257.6 320.05,-263.576 301.054,-275.551C281.646,-287.786 267.66,-304.821 259.183,-326.725L251.168,-346.319L155.118,-150.15C151.357,-142.469 143.552,-137.6 135,-137.6L46,-137.6C38.237,-137.6 31.027,-141.62 26.945,-148.224C22.864,-154.828 22.493,-163.074 25.965,-170.018L163.965,-446.018C172.463,-463.013 184.589,-476.595 200.31,-486.793C216.273,-497.147 234.155,-502.4 254,-502.4C274.32,-502.4 292.939,-497.079 309.872,-486.495C327.249,-475.634 339.944,-460.293 347.792,-440.335L360.952,-408.167ZM240,-537.6C200.41,-537.6 166.762,-551.664 139.049,-579.774C111.379,-607.838 97.6,-641.263 97.6,-680C97.6,-719.55 111.476,-753.154 139.161,-780.839C166.846,-808.524 200.45,-822.4 240,-822.4C279.55,-822.4 313.154,-808.524 340.839,-780.839C368.524,-753.154 382.4,-719.55 382.4,-680C382.4,-641.263 368.621,-607.838 340.951,-579.774C313.238,-551.664 279.59,-537.6 240,-537.6ZM240,-662.4C245.012,-662.4 249.271,-663.949 252.661,-667.339C256.051,-670.729 257.6,-674.988 257.6,-680C257.6,-685.012 256.051,-689.271 252.661,-692.661C249.271,-696.051 245.012,-697.6 240,-697.6C234.988,-697.6 230.729,-696.051 227.339,-692.661C223.949,-689.271 222.4,-685.012 222.4,-680C222.4,-674.988 223.949,-670.729 227.339,-667.339C230.729,-663.949 234.988,-662.4 240,-662.4Z"/>
        </g>
    </g>
</svg>
