<?xml version="1.0" encoding="UTF-8" standalone="no"?>
<!DOCTYPE svg PUBLIC "-//W3C//DTD SVG 1.1//EN" "http://www.w3.org/Graphics/SVG/1.1/DTD/svg11.dtd">
<svg width="100%" height="100%" viewBox="0 0 22 22" version="1.1" xmlns="http://www.w3.org/2000/svg" xmlns:xlink="http://www.w3.org/1999/xlink" xml:space="preserve" xmlns:serif="http://www.serif.com/" style="fill-rule:evenodd;clip-rule:evenodd;stroke-linejoin:round;stroke-miterlimit:2;">
    <g transform="matrix(1,0,0,1,-690.04,-550.953)">
        <g transform="matrix(0.025,0,0,0.025,688.84,573.753)">
            <path d="M480,-254L274,-48L48,-274L254,-480L48,-686L274,-912L480,-706L686,-912L912,-686L706,-480L912,-274L686,-48L480,-254ZM480,-520C491.333,-520 500.833,-523.833 508.5,-531.5C516.167,-539.167 520,-548.667 520,-560C520,-571.333 516.167,-580.833 508.5,-588.5C500.833,-596.167 491.333,-600 480,-600C468.667,-600 459.167,-596.167 451.5,-588.5C443.833,-580.833 440,-571.333 440,-560C440,-548.667 443.833,-539.167 451.5,-531.5C459.167,-523.833 468.667,-520 480,-520ZM310,-536L424,-650L274,-800L160,-686L310,-536ZM400,-440C411.333,-440 420.833,-443.833 428.5,-451.5C436.167,-459.167 440,-468.667 440,-480C440,-491.333 436.167,-500.833 428.5,-508.5C420.833,-516.167 411.333,-520 400,-520C388.667,-520 379.167,-516.167 371.5,-508.5C363.833,-500.833 360,-491.333 360,-480C360,-468.667 363.833,-459.167 371.5,-451.5C379.167,-443.833 388.667,-440 400,-440ZM480,-360C491.333,-360 500.833,-363.833 508.5,-371.5C516.167,-379.167 520,-388.667 520,-400C520,-411.333 516.167,-420.833 508.5,-428.5C500.833,-436.167 491.333,-440 480,-440C468.667,-440 459.167,-436.167 451.5,-428.5C443.833,-420.833 440,-411.333 440,-400C440,-388.667 443.833,-379.167 451.5,-371.5C459.167,-363.833 468.667,-360 480,-360ZM560,-440C571.333,-440 580.833,-443.833 588.5,-451.5C596.167,-459.167 600,-468.667 600,-480C600,-491.333 596.167,-500.833 588.5,-508.5C580.833,-516.167 571.333,-520 560,-520C548.667,-520 539.167,-516.167 531.5,-508.5C523.833,-500.833 520,-491.333 520,-480C520,-468.667 523.833,-459.167 531.5,-451.5C539.167,-443.833 548.667,-440 560,-440ZM536,-310L686,-160L800,-274L650,-424L536,-310Z" style="fill:rgb(31,31,31);fill-rule:nonzero;"/>
        </g>
    </g>
</svg>
