<?xml version="1.0" encoding="UTF-8" standalone="no"?>
<!DOCTYPE svg PUBLIC "-//W3C//DTD SVG 1.1//EN" "http://www.w3.org/Graphics/SVG/1.1/DTD/svg11.dtd">
<svg width="100%" height="100%" viewBox="0 0 452 452" version="1.1" xmlns="http://www.w3.org/2000/svg" xmlns:xlink="http://www.w3.org/1999/xlink" xml:space="preserve" xmlns:serif="http://www.serif.com/" style="fill-rule:evenodd;clip-rule:evenodd;stroke-linejoin:round;stroke-miterlimit:2;">
    <g transform="matrix(1,0,0,1,-314,-314)">
        <g transform="matrix(0.583333,0,0,0.583333,260,820)">
            <path d="M200,-92.571C170.453,-92.571 145.146,-103.064 124.105,-124.105C103.064,-145.146 92.571,-170.453 92.571,-200L92.571,-760C92.571,-789.547 103.064,-814.854 124.105,-835.895C145.146,-856.936 170.453,-867.429 200,-867.429L760,-867.429C789.547,-867.429 814.854,-856.936 835.895,-835.895C856.936,-814.854 867.429,-789.547 867.429,-760L867.429,-200C867.429,-170.453 856.936,-145.146 835.895,-124.105C814.854,-103.064 789.547,-92.571 760,-92.571L200,-92.571ZM227.429,-732.571L227.429,-227.429L732.571,-227.429L732.571,-732.571L227.429,-732.571ZM392.571,-280L392.571,-392.571L280,-392.571C264.852,-392.571 252.571,-404.852 252.571,-420L252.571,-540C252.571,-555.148 264.852,-567.429 280,-567.429L392.571,-567.429L392.571,-680C392.571,-695.148 404.852,-707.429 420,-707.429L540,-707.429C555.148,-707.429 567.429,-695.148 567.429,-680L567.429,-567.429L680,-567.429C695.148,-567.429 707.429,-555.148 707.429,-540L707.429,-420C707.429,-404.852 695.148,-392.571 680,-392.571L567.429,-392.571L567.429,-280C567.429,-264.852 555.148,-252.571 540,-252.571L420,-252.571C404.852,-252.571 392.571,-264.852 392.571,-280Z"/>
        </g>
    </g>
</svg>
