<?xml version="1.0" encoding="UTF-8" standalone="no"?>
<!DOCTYPE svg PUBLIC "-//W3C//DTD SVG 1.1//EN" "http://www.w3.org/Graphics/SVG/1.1/DTD/svg11.dtd">
<svg width="100%" height="100%" viewBox="0 0 428 428" version="1.1" xmlns="http://www.w3.org/2000/svg" xmlns:xlink="http://www.w3.org/1999/xlink" xml:space="preserve" xmlns:serif="http://www.serif.com/" style="fill-rule:evenodd;clip-rule:evenodd;stroke-linejoin:round;stroke-miterlimit:2;">
    <g transform="matrix(1,0,0,1,-326,-326)">
        <g transform="matrix(0.5,0,0,0.5,300,780)">
            <path d="M668,-172L668,-120C668,-100.764 661.312,-84.714 648.299,-71.701C635.286,-58.688 619.236,-52 600,-52L120,-52C100.764,-52 84.714,-58.688 71.701,-71.701C58.688,-84.714 52,-100.764 52,-120L52,-440C52,-459.236 58.688,-475.286 71.701,-488.299C84.714,-501.312 100.764,-508 120,-508L212,-508L212,-640C212,-714.438 238.095,-777.693 290.201,-829.799C342.307,-881.905 405.562,-908 480,-908L640,-908C714.438,-908 777.693,-881.905 829.799,-829.799C881.905,-777.693 908,-714.438 908,-640L908,-80C908,-64.536 895.464,-52 880,-52L800,-52C784.536,-52 772,-64.536 772,-80L772,-172L668,-172ZM668,-308L772,-308L772,-640C772,-676.295 759.048,-707.354 733.201,-733.201C707.354,-759.048 676.295,-772 640,-772L480,-772C443.705,-772 412.646,-759.048 386.799,-733.201C360.952,-707.354 348,-676.295 348,-640L348,-508L600,-508C619.236,-508 635.286,-501.312 648.299,-488.299C661.312,-475.286 668,-459.236 668,-440L668,-308ZM372,-560L372,-640C372,-655.464 384.536,-668 400,-668L720,-668C735.464,-668 748,-655.464 748,-640L748,-560C748,-544.536 735.464,-532 720,-532L400,-532C384.536,-532 372,-544.536 372,-560ZM360,-318.229L454.335,-372L265.665,-372L360,-318.229ZM188,-188L532,-188L532,-281.811L373.866,-191.674C365.271,-186.775 354.729,-186.775 346.134,-191.674L188,-281.811L188,-188Z"/>
        </g>
    </g>
</svg>
