<?xml version="1.0" encoding="UTF-8" standalone="no"?>
<!DOCTYPE svg PUBLIC "-//W3C//DTD SVG 1.1//EN" "http://www.w3.org/Graphics/SVG/1.1/DTD/svg11.dtd">
<svg width="100%" height="100%" viewBox="0 0 20 20" version="1.1" xmlns="http://www.w3.org/2000/svg" xmlns:xlink="http://www.w3.org/1999/xlink" xml:space="preserve" xmlns:serif="http://www.serif.com/" style="fill-rule:evenodd;clip-rule:evenodd;stroke-linejoin:round;stroke-miterlimit:2;">
    <g transform="matrix(1,0,0,1,-690.84,-551.753)">
        <g transform="matrix(0.025,0,0,0.025,688.84,573.753)">
            <path d="M424,-282C432.667,-274.667 441.833,-269.5 451.5,-266.5C461.167,-263.5 470.667,-262 480,-262C499.333,-262 516.833,-268.167 532.5,-280.5C548.167,-292.833 557.333,-310.667 560,-334C563.333,-365.333 553.667,-388.5 531,-403.5C508.333,-418.5 491.333,-438 480,-462C476.667,-452.667 475,-444 475,-436C475,-428 476,-419.333 478,-410C480,-398.667 482.333,-388 485,-378C487.667,-368 488,-357.333 486,-346C482.667,-334 475.333,-321.667 464,-309C452.667,-296.333 439.333,-287.333 424,-282ZM80,-80L80,-880L880,-880L880,-80L80,-80ZM480,-240C513.333,-240 541.667,-251.667 565,-275C588.333,-298.333 600,-326.667 600,-360C600,-376 596.667,-389.333 590,-400C583.333,-410.667 574,-420.667 562,-430C536.667,-448 515.5,-466.833 498.5,-486.5C481.5,-506.167 468,-526 458,-546C428.667,-522.667 405,-496.167 387,-466.5C369,-436.833 360,-402 360,-362C360,-338.667 372,-312.5 396,-283.5C420,-254.5 448,-240 480,-240ZM160,-160L240,-160L240,-240L330,-240C314.667,-259.333 302.5,-279.667 293.5,-301C284.5,-322.333 280,-342.667 280,-362C280,-392.667 283.333,-421.5 290,-448.5C296.667,-475.5 308.833,-501.667 326.5,-527C344.167,-552.333 368.667,-577.5 400,-602.5C431.333,-627.5 471.333,-653.333 520,-680C512.667,-650.667 515.833,-619.5 529.5,-586.5C543.167,-553.5 568.667,-523.333 606,-496C628,-480 645.833,-461.167 659.5,-439.5C673.167,-417.833 680,-391.333 680,-360C680,-336.667 676.333,-315.167 669,-295.5C661.667,-275.833 652,-257.333 640,-240L720,-240L720,-160L800,-160L800,-800L160,-800L160,-160Z" style="fill:rgb(31,31,31);fill-rule:nonzero;"/>
        </g>
    </g>
</svg>
