<?xml version="1.0" encoding="UTF-8" standalone="no"?>
<!DOCTYPE svg PUBLIC "-//W3C//DTD SVG 1.1//EN" "http://www.w3.org/Graphics/SVG/1.1/DTD/svg11.dtd">
<svg width="100%" height="100%" viewBox="0 0 20 19" version="1.1" xmlns="http://www.w3.org/2000/svg" xmlns:xlink="http://www.w3.org/1999/xlink" xml:space="preserve" xmlns:serif="http://www.serif.com/" style="fill-rule:evenodd;clip-rule:evenodd;stroke-linejoin:round;stroke-miterlimit:2;">
    <g transform="matrix(1,0,0,1,-690.84,-552.253)">
        <g transform="matrix(0.025,0,0,0.025,688.84,573.253)">
            <path d="M180,-520C162.667,-520 148.333,-525.667 137,-537C125.667,-548.333 120,-562.667 120,-580C120,-597.333 125.667,-611.667 137,-623C148.333,-634.333 162.667,-640 180,-640C197.333,-640 211.667,-634.333 223,-623C234.333,-611.667 240,-597.333 240,-580C240,-562.667 234.333,-548.333 223,-537C211.667,-525.667 197.333,-520 180,-520ZM120,-80L120,-280L80,-280L80,-480L280,-480L280,-280L240,-280L240,-160L560,-160L560,-360L490,-360C442.667,-360 402.5,-376.5 369.5,-409.5C336.5,-442.5 320,-482.667 320,-530C320,-565.333 329.5,-596.833 348.5,-624.5C367.5,-652.167 392,-672.667 422,-686C429.333,-729.333 449.5,-765.833 482.5,-795.5C515.5,-825.167 554.667,-840 600,-840C645.333,-840 684.5,-825.167 717.5,-795.5C750.5,-765.833 770.667,-729.333 778,-686C808,-672.667 832.5,-652.167 851.5,-624.5C870.5,-596.833 880,-565.333 880,-530C880,-482.667 863.5,-442.5 830.5,-409.5C797.5,-376.5 757.333,-360 710,-360L640,-360L640,-160L840,-160L840,-80L120,-80ZM490,-440L710,-440C735.333,-440 756.667,-448.667 774,-466C791.333,-483.333 800,-504.667 800,-530C800,-548 795.167,-564.333 785.5,-579C775.833,-593.667 762.667,-604.667 746,-612L704,-630L698,-674C694,-698.667 682.833,-719.167 664.5,-735.5C646.167,-751.833 624.667,-760 600,-760C575.333,-760 553.833,-751.833 535.5,-735.5C517.167,-719.167 506,-698.667 502,-674L496,-630L454,-612C437.333,-604.667 424.167,-593.667 414.5,-579C404.833,-564.333 400,-548 400,-530C400,-504.667 408.667,-483.333 426,-466C443.333,-448.667 464.667,-440 490,-440Z" style="fill:rgb(31,31,31);fill-rule:nonzero;"/>
        </g>
    </g>
</svg>
