<?xml version="1.0" encoding="UTF-8" standalone="no"?>
<!DOCTYPE svg PUBLIC "-//W3C//DTD SVG 1.1//EN" "http://www.w3.org/Graphics/SVG/1.1/DTD/svg11.dtd">
<svg width="100%" height="100%" viewBox="0 0 408 408" version="1.1" xmlns="http://www.w3.org/2000/svg" xmlns:xlink="http://www.w3.org/1999/xlink" xml:space="preserve" xmlns:serif="http://www.serif.com/" style="fill-rule:evenodd;clip-rule:evenodd;stroke-linejoin:round;stroke-miterlimit:2;">
    <g transform="matrix(1,0,0,1,-336,-336)">
        <g transform="matrix(0.5,0,0,0.5,300,780)">
            <path d="M160,-72C135.799,-72 115.077,-80.609 97.843,-97.843C80.609,-115.077 72,-135.799 72,-160L72,-800C72,-824.201 80.609,-844.923 97.843,-862.157C115.077,-879.391 135.799,-888 160,-888L800,-888C824.201,-888 844.923,-879.391 862.157,-862.157C879.391,-844.923 888,-824.201 888,-800L888,-160C888,-135.799 879.391,-115.077 862.157,-97.843C844.923,-80.609 824.201,-72 800,-72L160,-72ZM168,-792L168,-168L792,-168L792,-792L168,-792ZM552,-200L552.001,-449.104C530.635,-460.58 513.753,-477.942 501.427,-501.262C488.529,-525.664 482,-554.231 482,-587C482,-626.938 492.131,-660.175 512.1,-686.8C532.779,-714.371 558.801,-728 590,-728C621.199,-728 647.221,-714.371 667.9,-686.8C687.869,-660.175 698,-626.938 698,-587C698,-554.231 691.471,-525.664 678.573,-501.262C666.247,-477.942 649.365,-460.58 628,-449.104L628,-192L552,-192L552,-200ZM312,-200L312,-464.263C295.643,-470.31 281.927,-480.025 270.842,-493.393C258.333,-508.477 252,-526.662 252,-548L252,-700C252,-707.477 254.735,-714.049 260.343,-719.657C265.951,-725.265 272.523,-728 280,-728C287.477,-728 294.049,-725.265 299.657,-719.657C305.265,-714.049 308,-707.477 308,-700L308,-608L322,-608L322,-700C322,-707.477 324.735,-714.049 330.343,-719.657C335.951,-725.265 342.523,-728 350,-728C357.477,-728 364.049,-725.265 369.657,-719.657C375.265,-714.049 378,-707.477 378,-700L378,-608L392,-608L392,-700C392,-707.477 394.735,-714.049 400.343,-719.657C405.951,-725.265 412.523,-728 420,-728C427.477,-728 434.049,-725.265 439.657,-719.657C445.265,-714.049 448,-707.477 448,-700L448,-548C448,-526.662 441.667,-508.477 429.158,-493.393C418.073,-480.025 404.357,-470.31 388,-464.263L388,-192L312,-192L312,-200Z"/>
        </g>
    </g>
</svg>
