<?xml version="1.0" encoding="UTF-8" standalone="no"?>
<!DOCTYPE svg PUBLIC "-//W3C//DTD SVG 1.1//EN" "http://www.w3.org/Graphics/SVG/1.1/DTD/svg11.dtd">
<svg width="100%" height="100%" viewBox="0 0 16 21" version="1.1" xmlns="http://www.w3.org/2000/svg" xmlns:xlink="http://www.w3.org/1999/xlink" xml:space="preserve" xmlns:serif="http://www.serif.com/" style="fill-rule:evenodd;clip-rule:evenodd;stroke-linejoin:round;stroke-miterlimit:2;">
    <g transform="matrix(1,0,0,1,-693.14,-551.553)">
        <g transform="matrix(0.025,0,0,0.025,689.54,573.553)">
            <path d="M640,-320C673.333,-320 701.667,-308.333 725,-285C748.333,-261.667 760,-233.333 760,-200C760,-166.667 748.333,-138.333 725,-115C701.667,-91.667 673.333,-80 640,-80C614.667,-80 591.833,-87.333 571.5,-102C551.167,-116.667 536.667,-136 528,-160L274,-160L213,-64L144,-107L324,-384C276,-406 236.667,-439.833 206,-485.5C175.333,-531.167 160,-582.667 160,-640L720,-640C720,-582.667 704.667,-531.167 674,-485.5C643.333,-439.833 604,-406 556,-384L579,-348C565,-341.333 553.5,-334.667 544.5,-328C535.5,-321.333 525.667,-312 515,-300L475,-362C469.667,-360.667 464,-360 458,-360L422,-360C416,-360 410.333,-360.667 405,-362L326,-240L528,-240C536.667,-264 551.167,-283.333 571.5,-298C591.833,-312.667 614.667,-320 640,-320ZM640,-160C651.333,-160 660.833,-163.833 668.5,-171.5C676.167,-179.167 680,-188.667 680,-200C680,-211.333 676.167,-220.833 668.5,-228.5C660.833,-236.167 651.333,-240 640,-240C628.667,-240 619.167,-236.167 611.5,-228.5C603.833,-220.833 600,-211.333 600,-200C600,-188.667 603.833,-179.167 611.5,-171.5C619.167,-163.833 628.667,-160 640,-160ZM440,-440C480,-440 516.5,-451 549.5,-473C582.5,-495 607.333,-524 624,-560L256,-560C273.333,-524 298.333,-495 331,-473C363.667,-451 400,-440 440,-440ZM336,-680C339.333,-699.333 338.833,-715.667 334.5,-729C330.167,-742.333 321,-757.667 307,-775C293.667,-792.333 284.833,-808.833 280.5,-824.5C276.167,-840.167 275.667,-858.667 279,-880L319,-880C315.667,-860.667 316.167,-844.5 320.5,-831.5C324.833,-818.5 334,-803.333 348,-786C362,-768.667 371,-752.167 375,-736.5C379,-720.833 379.333,-702 376,-680L336,-680ZM436,-680C439.333,-699.333 439,-715.667 435,-729C431,-742.333 422,-757.667 408,-775C394,-791.667 384.833,-807.833 380.5,-823.5C376.167,-839.167 375.667,-858 379,-880L419,-880C415.667,-860.667 416.167,-844.5 420.5,-831.5C424.833,-818.5 434,-803.333 448,-786C461.333,-769.333 470.167,-753.167 474.5,-737.5C478.833,-721.833 479.333,-702.667 476,-680L436,-680ZM536,-680C539.333,-699.333 539,-715.667 535,-729C531,-742.333 522,-757.667 508,-775C494,-791.667 484.833,-807.833 480.5,-823.5C476.167,-839.167 475.667,-858 479,-880L519,-880C515.667,-860.667 516.167,-844.5 520.5,-831.5C524.833,-818.5 534,-803.333 548,-786C561.333,-769.333 570.167,-753.167 574.5,-737.5C578.833,-721.833 579.333,-702.667 576,-680L536,-680Z" style="fill:rgb(31,31,31);fill-rule:nonzero;"/>
        </g>
    </g>
</svg>
