<?xml version="1.0" encoding="UTF-8" standalone="no"?>
<!DOCTYPE svg PUBLIC "-//W3C//DTD SVG 1.1//EN" "http://www.w3.org/Graphics/SVG/1.1/DTD/svg11.dtd">
<svg width="100%" height="100%" viewBox="0 0 475 452" version="1.1" xmlns="http://www.w3.org/2000/svg" xmlns:xlink="http://www.w3.org/1999/xlink" xml:space="preserve" xmlns:serif="http://www.serif.com/" style="fill-rule:evenodd;clip-rule:evenodd;stroke-linejoin:round;stroke-miterlimit:2;">
    <g transform="matrix(1,0,0,1,-302.947,-314)">
        <g transform="matrix(0.552632,0,0,0.552632,274.737,794.211)">
            <path d="M125.098,-508.952C122.125,-511.26 119.269,-513.786 116.528,-516.528C99.763,-533.292 91.048,-554.361 91.048,-580C91.048,-605.639 99.763,-626.708 116.528,-643.472C133.292,-660.237 154.361,-668.952 180,-668.952C205.639,-668.952 226.708,-660.237 243.472,-643.472C260.237,-626.708 268.952,-605.639 268.952,-580C268.952,-554.361 260.237,-533.292 243.472,-516.528C240.731,-513.786 237.875,-511.26 234.902,-508.952L240,-508.952C259.505,-508.952 275.778,-502.167 288.972,-488.972C291.972,-485.973 294.64,-482.814 296.973,-479.495C293.024,-495.473 291.048,-512.307 291.048,-530C291.048,-571.476 302.33,-608.413 324.634,-640.89C343.774,-668.762 367.733,-690.358 396.467,-705.728C406.746,-749.19 428.958,-786.298 463.144,-817.031C501.589,-851.592 547.187,-868.952 600,-868.952C652.813,-868.952 698.411,-851.592 736.856,-817.031C771.042,-786.298 793.254,-749.19 803.532,-705.728C832.267,-690.358 856.226,-668.762 875.366,-640.89C897.67,-608.413 908.952,-571.476 908.952,-530C908.952,-474.615 889.586,-427.641 850.972,-389.028C812.359,-350.414 765.385,-331.048 710,-331.048L668.952,-331.048L668.952,-188.952L840,-188.952C855.99,-188.952 868.952,-175.99 868.952,-160L868.952,-80C868.952,-64.01 855.99,-51.048 840,-51.048L120,-51.048C104.01,-51.048 91.048,-64.01 91.048,-80L91.048,-251.048L80,-251.048C64.01,-251.048 51.048,-264.01 51.048,-280L51.048,-440C51.048,-459.505 57.833,-475.778 71.028,-488.972C84.222,-502.167 100.495,-508.952 120,-508.952L125.098,-508.952ZM490,-468.952L710,-468.952C727.207,-468.952 741.754,-474.699 753.528,-486.472C765.301,-498.246 771.048,-512.793 771.048,-530C771.048,-542.141 767.846,-553.175 761.326,-563.067C754.758,-573.033 745.764,-580.449 734.455,-585.449L692.595,-603.389C683.247,-607.395 676.687,-616.012 675.313,-626.088L669.357,-669.757C666.41,-687.427 658.406,-702.154 645.241,-713.882C632.383,-725.337 617.299,-731.048 600,-731.048C582.701,-731.048 567.617,-725.337 554.759,-713.882C541.583,-702.143 533.576,-687.4 530.634,-669.698L524.687,-626.088C523.313,-616.012 516.753,-607.395 507.405,-603.389L465.452,-585.407C454.186,-580.408 445.224,-573.005 438.674,-563.067C432.154,-553.175 428.952,-542.141 428.952,-530C428.952,-512.793 434.699,-498.246 446.472,-486.472C458.246,-474.699 472.793,-468.952 490,-468.952ZM308.735,-445.954C308.88,-444.004 308.952,-442.019 308.952,-440L308.952,-280C308.952,-264.01 295.99,-251.048 280,-251.048L268.952,-251.048L268.952,-188.952L531.048,-188.952L531.048,-331.048L490,-331.048C434.615,-331.048 387.641,-350.414 349.028,-389.028C331.731,-406.324 318.297,-425.298 308.735,-445.954Z"/>
        </g>
    </g>
</svg>
