<?xml version="1.0" encoding="UTF-8" standalone="no"?>
<!DOCTYPE svg PUBLIC "-//W3C//DTD SVG 1.1//EN" "http://www.w3.org/Graphics/SVG/1.1/DTD/svg11.dtd">
<svg width="100%" height="100%" viewBox="0 0 488 421" version="1.1" xmlns="http://www.w3.org/2000/svg" xmlns:xlink="http://www.w3.org/1999/xlink" xml:space="preserve" xmlns:serif="http://www.serif.com/" style="fill-rule:evenodd;clip-rule:evenodd;stroke-linejoin:round;stroke-miterlimit:2;">
    <g transform="matrix(1,0,0,1,-296.351,-329.55)">
        <g transform="matrix(0.474268,0,0,0.474268,312.351,772.391)">
            <path d="M275.771,-501.89C270.497,-508.902 266.189,-516.476 262.827,-524.601C257.135,-538.357 254.264,-552.82 254.264,-568C254.264,-583.494 257.421,-598.259 263.715,-612.3C269.76,-625.784 277.916,-637.626 288.145,-647.855L400.145,-759.855C411.537,-771.247 424.607,-779.765 439.321,-785.461C453.528,-790.961 468.418,-793.736 484,-793.736C492.801,-793.736 501.381,-792.851 509.742,-791.089C507.423,-800.257 506.264,-809.894 506.264,-820C506.264,-851.283 517.368,-878.078 539.645,-900.355C561.922,-922.632 588.717,-933.736 620,-933.736C651.283,-933.736 678.078,-922.632 700.355,-900.355C722.632,-878.078 733.736,-851.283 733.736,-820C733.736,-788.717 722.632,-761.922 700.355,-739.645C678.42,-717.71 652.105,-706.608 621.439,-706.272L643.855,-683.855C659.561,-668.149 677.508,-655.804 697.702,-646.829C717.373,-638.086 738.143,-633.736 760,-633.736C778.632,-633.736 793.736,-618.632 793.736,-600L793.736,-520C793.736,-517.132 793.378,-514.347 792.705,-511.689C843.449,-505.164 887.663,-483.047 925.355,-445.355C970.932,-399.778 993.736,-344.664 993.736,-280C993.736,-215.336 970.932,-160.222 925.355,-114.645C879.778,-69.068 824.664,-46.264 760,-46.264C695.336,-46.264 640.222,-69.068 594.645,-114.645C574.522,-134.767 558.839,-156.749 547.597,-180.591C541.491,-171.925 531.407,-166.264 520,-166.264L440,-166.264C428.593,-166.264 418.509,-171.925 412.403,-180.591C401.161,-156.749 385.478,-134.767 365.355,-114.645C319.778,-69.068 264.664,-46.264 200,-46.264C135.336,-46.264 80.222,-69.068 34.645,-114.645C-10.932,-160.222 -33.736,-215.336 -33.736,-280C-33.736,-344.664 -10.932,-399.778 34.645,-445.355C80.222,-490.932 135.336,-513.736 200,-513.736C226.911,-513.736 252.167,-509.787 275.771,-501.89ZM200,-193.736C223.97,-193.736 244.366,-202.076 261.145,-218.855C277.924,-235.634 286.264,-256.03 286.264,-280C286.264,-303.97 277.924,-324.366 261.145,-341.145C244.366,-357.924 223.97,-366.264 200,-366.264C176.03,-366.264 155.634,-357.924 138.855,-341.145C122.076,-324.366 113.736,-303.97 113.736,-280C113.736,-256.03 122.076,-235.634 138.855,-218.855C155.634,-202.076 176.03,-193.736 200,-193.736ZM760,-193.736C783.97,-193.736 804.366,-202.076 821.145,-218.855C837.924,-235.634 846.264,-256.03 846.264,-280C846.264,-303.97 837.924,-324.366 821.145,-341.145C804.366,-357.924 783.97,-366.264 760,-366.264C736.03,-366.264 715.634,-357.924 698.855,-341.145C682.076,-324.366 673.736,-303.97 673.736,-280C673.736,-256.03 682.076,-235.634 698.855,-218.855C715.634,-202.076 736.03,-193.736 760,-193.736ZM553.736,-391.445C564.317,-410.694 577.954,-428.664 594.645,-445.355C618.506,-469.216 644.98,-486.835 674.071,-498.208C661.939,-501.7 649.997,-505.956 638.247,-510.976C599.938,-527.341 565.899,-550.39 536.145,-580.145L528,-588.29L479.186,-539.476L544.379,-471.319C550.385,-465.041 553.736,-456.688 553.736,-448L553.736,-391.445Z" style="fill:rgb(255,113,0);"/>
        </g>
    </g>
</svg>
