<?xml version="1.0" encoding="UTF-8" standalone="no"?>
<!DOCTYPE svg PUBLIC "-//W3C//DTD SVG 1.1//EN" "http://www.w3.org/Graphics/SVG/1.1/DTD/svg11.dtd">
<svg width="100%" height="100%" viewBox="0 0 24 24" version="1.1" xmlns="http://www.w3.org/2000/svg" xmlns:xlink="http://www.w3.org/1999/xlink" xml:space="preserve" xmlns:serif="http://www.serif.com/" style="fill-rule:evenodd;clip-rule:evenodd;stroke-linejoin:round;stroke-miterlimit:2;">
    <g transform="matrix(1,0,0,1,-598.657,-593.17)">
        <g transform="matrix(0.025,0,0,0.025,598.657,618.173)">
            <path d="M697.334,-841.154C699.111,-834.462 700,-827.411 700,-820C700,-798 692.167,-779.167 676.5,-763.5C660.833,-747.833 642,-740 620,-740C598,-740 579.167,-747.833 563.5,-763.5C547.833,-779.167 540,-798 540,-820C540,-842 547.833,-860.833 563.5,-876.5C564.421,-877.421 565.353,-878.315 566.296,-879.182L537.736,-887.47L604.598,-1000.11C784.714,-947.176 771.092,-819.749 771.092,-819.749L697.334,-841.154ZM432,-540L520,-448L520,-200L440,-200L440,-400L252,-564L424,-736C432.667,-744.667 441.833,-750.833 451.5,-754.5C461.167,-758.167 472,-760 484,-760C496,-760 506.833,-758.167 516.5,-754.5C526.167,-750.833 535.333,-744.667 544,-736L620,-660C638,-642 659,-627.5 683,-616.5C707,-605.5 734,-600 764,-600L764,-520C722,-520 684,-527.5 650,-542.5C616,-557.5 586,-578 560,-604L528,-636L432,-540ZM200,-480C256.667,-480 304.167,-460.833 342.5,-422.5C380.833,-384.167 400,-336.667 400,-280C400,-223.333 380.833,-175.833 342.5,-137.5C304.167,-99.167 256.667,-80 200,-80C143.333,-80 95.833,-99.167 57.5,-137.5C19.167,-175.833 0,-223.333 0,-280C0,-336.667 19.167,-384.167 57.5,-422.5C95.833,-460.833 143.333,-480 200,-480ZM200,-140C238,-140 270.833,-153.833 298.5,-181.5C326.167,-209.167 340,-242 340,-280C340,-318 326.167,-350.833 298.5,-378.5C270.833,-406.167 238,-420 200,-420C162,-420 129.167,-406.167 101.5,-378.5C73.833,-350.833 60,-318 60,-280C60,-242 73.833,-209.167 101.5,-181.5C129.167,-153.833 162,-140 200,-140ZM760,-480C816.667,-480 864.167,-460.833 902.5,-422.5C940.833,-384.167 960,-336.667 960,-280C960,-223.333 940.833,-175.833 902.5,-137.5C864.167,-99.167 816.667,-80 760,-80C703.333,-80 655.833,-99.167 617.5,-137.5C579.167,-175.833 560,-223.333 560,-280C560,-336.667 579.167,-384.167 617.5,-422.5C655.833,-460.833 703.333,-480 760,-480ZM760,-140C798,-140 830.833,-153.833 858.5,-181.5C886.167,-209.167 900,-242 900,-280C900,-318 886.167,-350.833 858.5,-378.5C830.833,-406.167 798,-420 760,-420C722,-420 689.167,-406.167 661.5,-378.5C633.833,-350.833 620,-318 620,-280C620,-242 633.833,-209.167 661.5,-181.5C689.167,-153.833 722,-140 760,-140Z" style="fill:rgb(255,113,0);"/>
        </g>
    </g>
</svg>
