<?xml version="1.0" encoding="UTF-8" standalone="no"?>
<!DOCTYPE svg PUBLIC "-//W3C//DTD SVG 1.1//EN" "http://www.w3.org/Graphics/SVG/1.1/DTD/svg11.dtd">
<svg width="100%" height="100%" viewBox="0 0 469 428" version="1.1" xmlns="http://www.w3.org/2000/svg" xmlns:xlink="http://www.w3.org/1999/xlink" xml:space="preserve" xmlns:serif="http://www.serif.com/" style="fill-rule:evenodd;clip-rule:evenodd;stroke-linejoin:round;stroke-miterlimit:2;">
    <g transform="matrix(1,0,0,1,-316.943,-312.5)">
        <g transform="matrix(0.5,0,0,0.5,310.944,786.5)">
            <path d="M140.404,-740C135.218,-745.082 132,-752.165 132,-760C132,-801.104 146.428,-836.026 175.201,-864.799C203.974,-893.572 238.896,-908 280,-908C283.432,-908 286.38,-908.978 288.701,-911.299C291.022,-913.62 292,-916.568 292,-920C292,-935.464 304.536,-948 320,-948L400,-948C415.464,-948 428,-935.464 428,-920C428,-878.896 413.572,-843.974 384.799,-815.201C356.026,-786.428 321.104,-772 280,-772C276.568,-772 273.62,-771.022 271.299,-768.701C268.978,-766.38 268,-763.432 268,-760C268,-752.165 264.782,-745.082 259.596,-740C264.782,-734.918 268,-727.835 268,-720L268,-713.561L463.022,-862.266C473.056,-869.916 486.966,-869.911 496.994,-862.253L936.994,-526.253C949.274,-516.875 951.637,-499.322 942.272,-487.031L894.272,-424.031C884.95,-411.796 867.505,-409.371 855.2,-418.6L828,-439L828,-120C828,-104.536 815.464,-92 800,-92L160,-92C144.536,-92 132,-104.536 132,-120L132,-438.376L104.997,-417.749C99.062,-413.215 91.561,-411.241 84.163,-412.264C76.764,-413.288 70.081,-417.225 65.6,-423.2L17.6,-487.2C8.391,-499.479 10.783,-516.883 22.964,-526.221L132,-609.815L132,-720C132,-727.835 135.218,-734.918 140.404,-740ZM268,-388L692,-388L692,-412L268,-412L268,-388ZM275.783,-548L684.217,-548L652.581,-572L307.419,-572L275.783,-548ZM268,-228L692,-228L692,-252L268,-252L268,-228Z"/>
        </g>
    </g>
</svg>
