<?xml version="1.0" encoding="UTF-8" standalone="no"?>
<!DOCTYPE svg PUBLIC "-//W3C//DTD SVG 1.1//EN" "http://www.w3.org/Graphics/SVG/1.1/DTD/svg11.dtd">
<svg width="100%" height="100%" viewBox="0 0 22 20" version="1.1" xmlns="http://www.w3.org/2000/svg" xmlns:xlink="http://www.w3.org/1999/xlink" xml:space="preserve" xmlns:serif="http://www.serif.com/" style="fill-rule:evenodd;clip-rule:evenodd;stroke-linejoin:round;stroke-miterlimit:2;">
    <g transform="matrix(1,0,0,1,-686.71,-518.31)">
        <g transform="matrix(0.025,0,0,0.025,685.71,541.31)">
            <path d="M240,-200L720,-200L720,-280L240,-280L240,-200ZM240,-360L720,-360L720,-440L240,-440L240,-360ZM240,-520L720,-520L720,-556L662,-600L298,-600L240,-556L240,-520ZM402,-680L558,-680L480,-739L402,-680ZM160,-120L160,-495L88,-440L40,-504L160,-596L160,-720L240,-720L240,-657L480,-840L920,-504L872,-441L800,-495L800,-120L160,-120ZM160,-760C160,-793.333 171.667,-821.667 195,-845C218.333,-868.333 246.667,-880 280,-880C291.333,-880 300.833,-883.833 308.5,-891.5C316.167,-899.167 320,-908.667 320,-920L400,-920C400,-886.667 388.333,-858.333 365,-835C341.667,-811.667 313.333,-800 280,-800C268.667,-800 259.167,-796.167 251.5,-788.5C243.833,-780.833 240,-771.333 240,-760L160,-760Z" style="fill:rgb(31,31,31);fill-rule:nonzero;"/>
        </g>
    </g>
</svg>
