<?xml version="1.0" encoding="UTF-8" standalone="no"?>
<!DOCTYPE svg PUBLIC "-//W3C//DTD SVG 1.1//EN" "http://www.w3.org/Graphics/SVG/1.1/DTD/svg11.dtd">
<svg width="100%" height="100%" viewBox="0 0 504 262" version="1.1" xmlns="http://www.w3.org/2000/svg" xmlns:xlink="http://www.w3.org/1999/xlink" xml:space="preserve" xmlns:serif="http://www.serif.com/" style="fill-rule:evenodd;clip-rule:evenodd;stroke-linejoin:round;stroke-miterlimit:2;">
    <g transform="matrix(1,0,0,1,-288.187,-409.114)">
        <g transform="matrix(0.604635,0,0,0.604635,249.775,830.225)">
            <path d="M343.529,-400L343.529,-680C343.529,-689.096 350.904,-696.471 360,-696.471L720,-696.471C768.532,-696.471 810.086,-679.207 844.646,-644.646C879.207,-610.086 896.471,-568.532 896.471,-520L896.471,-400C896.471,-390.904 889.096,-383.529 880,-383.529L360,-383.529C350.904,-383.529 343.529,-390.904 343.529,-400ZM456.471,-583.529L456.471,-496.471L783.529,-496.471L783.529,-520C783.529,-537.468 777.293,-552.414 764.854,-564.854C752.414,-577.293 737.468,-583.529 720,-583.529L456.471,-583.529ZM63.529,-280L63.529,-360C63.529,-369.096 70.904,-376.471 80,-376.471L880,-376.471C889.096,-376.471 896.471,-369.096 896.471,-360L896.471,-280C896.471,-270.904 889.096,-263.529 880,-263.529L80,-263.529C70.904,-263.529 63.529,-270.904 63.529,-280ZM200,-383.529C162.095,-383.529 129.887,-396.82 103.354,-423.354C76.82,-449.887 63.529,-482.095 63.529,-520C63.529,-557.905 76.82,-590.113 103.354,-616.646C129.887,-643.18 162.095,-656.471 200,-656.471C237.905,-656.471 270.113,-643.18 296.646,-616.646C323.18,-590.113 336.471,-557.905 336.471,-520C336.471,-482.095 323.18,-449.887 296.646,-423.354C270.113,-396.82 237.905,-383.529 200,-383.529ZM200,-496.471C206.685,-496.471 212.331,-498.624 216.854,-503.146C221.376,-507.669 223.529,-513.315 223.529,-520C223.529,-526.685 221.376,-532.331 216.854,-536.854C212.331,-541.376 206.685,-543.529 200,-543.529C193.315,-543.529 187.669,-541.376 183.146,-536.854C178.624,-532.331 176.471,-526.685 176.471,-520C176.471,-513.315 178.624,-507.669 183.146,-503.146C187.669,-498.624 193.315,-496.471 200,-496.471Z"/>
        </g>
    </g>
</svg>
