<?xml version="1.0" encoding="UTF-8" standalone="no"?>
<!DOCTYPE svg PUBLIC "-//W3C//DTD SVG 1.1//EN" "http://www.w3.org/Graphics/SVG/1.1/DTD/svg11.dtd">
<svg width="100%" height="100%" viewBox="0 0 16 18" version="1.1" xmlns="http://www.w3.org/2000/svg" xmlns:xlink="http://www.w3.org/1999/xlink" xml:space="preserve" xmlns:serif="http://www.serif.com/" style="fill-rule:evenodd;clip-rule:evenodd;stroke-linejoin:round;stroke-miterlimit:2;">
    <g transform="matrix(1,0,0,1,-692.84,-552.753)">
        <g transform="matrix(0.025,0,0,0.025,688.84,573.753)">
            <path d="M280,-240L320,-240L320,-300L640,-300L640,-240L680,-240L680,-400C680,-422 672.167,-440.833 656.5,-456.5C640.833,-472.167 622,-480 600,-480L460,-480L460,-340L320,-340L320,-520L280,-520L280,-240ZM390,-360C404,-360 415.833,-364.833 425.5,-374.5C435.167,-384.167 440,-396 440,-410C440,-424 435.167,-435.833 425.5,-445.5C415.833,-455.167 404,-460 390,-460C376,-460 364.167,-455.167 354.5,-445.5C344.833,-435.833 340,-424 340,-410C340,-396 344.833,-384.167 354.5,-374.5C364.167,-364.833 376,-360 390,-360ZM160,-120L160,-600L480,-840L800,-600L800,-120L160,-120ZM240,-200L720,-200L720,-560L480,-740L240,-560L240,-200Z" style="fill:rgb(31,31,31);fill-rule:nonzero;"/>
        </g>
    </g>
</svg>
