<?xml version="1.0" encoding="UTF-8" standalone="no"?>
<!DOCTYPE svg PUBLIC "-//W3C//DTD SVG 1.1//EN" "http://www.w3.org/Graphics/SVG/1.1/DTD/svg11.dtd">
<svg width="100%" height="100%" viewBox="0 0 259 428" version="1.1" xmlns="http://www.w3.org/2000/svg" xmlns:xlink="http://www.w3.org/1999/xlink" xml:space="preserve" xmlns:serif="http://www.serif.com/" style="fill-rule:evenodd;clip-rule:evenodd;stroke-linejoin:round;stroke-miterlimit:2;">
    <g transform="matrix(1,0,0,1,-410.639,-326)">
        <g transform="matrix(1.26984,0,0,1.26984,339.999,340)">
            <path d="M229.079,142.671L241.346,142.671L244.967,143.037L248.365,144.092L251.431,145.756L254.091,147.95L256.286,150.61L257.95,153.675L259.005,157.073L259.372,160.693L259.372,160.696L259.006,164.317L257.951,167.716L256.287,170.782L254.093,173.442L251.433,175.636L248.367,177.3L244.968,178.355L244.408,178.412C240.463,200.371 228.381,219.535 211.393,232.658L222.238,305.342L222.393,309.225L221.724,313.009L220.27,316.564L218.066,319.765L218.063,319.768L215.222,322.422L211.918,324.387L208.273,325.606L204.409,326.025L114.86,326.025L110.996,325.606L107.351,324.387L104.047,322.422L101.206,319.768L101.203,319.765L98.999,316.564L97.545,313.009L96.876,309.225L97.031,305.342L107.456,235.469C88.452,222.355 74.828,201.995 70.591,178.411L70.033,178.355L66.634,177.3L63.568,175.636L60.908,173.442L58.714,170.782L57.05,167.716L55.995,164.317L55.629,160.696L55.995,157.075L57.05,153.676L58.714,150.61L60.908,147.95L63.568,145.756L66.634,144.092L70.033,143.037L73.654,142.671L85.918,142.671L85.835,142.583L84.07,139.883L82.798,136.86L82.088,133.59L70.105,35.2L70.047,31.372L70.787,27.659L72.285,24.183L74.503,21.068L77.328,18.488L80.599,16.58L84.194,15.398L87.997,14.992L117.999,14.992C124.6,-0.296 139.817,-11.025 157.5,-11.025C175.183,-11.025 190.4,-0.296 197.001,14.992L227.002,14.992L230.807,15.398L234.401,16.581L237.67,18.488L240.495,21.066L242.714,24.183L244.212,27.659L244.952,31.372L244.894,35.196L232.909,133.588L232.2,136.858L230.928,139.883L229.162,142.583L229.079,142.671ZM157.5,215.023C180.753,215.023 200.497,199.756 207.256,178.721L107.744,178.721C114.503,199.756 134.247,215.023 157.5,215.023ZM183.494,289.975L177.351,248.809C170.969,250.287 164.325,251.072 157.499,251.072C152.136,251.072 146.887,250.585 141.788,249.659L135.773,289.975L183.494,289.975ZM206.65,51.042L108.35,51.042L115.944,113.386L199.055,113.386L206.65,51.042Z"/>
        </g>
    </g>
</svg>
