<?xml version="1.0" encoding="UTF-8" standalone="no"?>
<!DOCTYPE svg PUBLIC "-//W3C//DTD SVG 1.1//EN" "http://www.w3.org/Graphics/SVG/1.1/DTD/svg11.dtd">
<svg width="100%" height="100%" viewBox="0 0 14 23" version="1.1" xmlns="http://www.w3.org/2000/svg" xmlns:xlink="http://www.w3.org/1999/xlink" xml:space="preserve" xmlns:serif="http://www.serif.com/" style="fill-rule:evenodd;clip-rule:evenodd;stroke-linejoin:round;stroke-miterlimit:2;">
    <g transform="matrix(1,0,0,1,-583.42,-549.661)">
        <g transform="matrix(0.0679365,0,0,0.0679365,579.705,550.061)">
            <path d="M73.074,19.995L121.538,20.122C126.529,5.033 140.759,-5.888 157.5,-5.888C174.241,-5.888 188.471,5.032 193.461,20.118L241.518,19.995L226.68,144.488L88.085,144.488L73.074,19.995ZM212.45,45.905L102.55,45.905L111.394,118.523L203.605,118.523L212.45,45.905ZM75.044,173.609L54.687,173.705L54.687,148.086L253.785,148.086L253.785,173.719L239.955,173.621C236.895,196.961 224.129,217.28 205.847,230.382L219.063,321.132L99.395,321.132L113.006,232.985C92.671,220.06 78.31,198.56 75.044,173.609ZM189.454,295.112L181.582,242.362C173.956,244.68 165.873,245.935 157.499,245.935C150.61,245.935 143.919,245.081 137.515,243.487L129.813,295.112L189.454,295.112ZM157.5,220.16C185.451,220.16 208.786,200.075 213.859,173.584L101.139,173.583C106.215,200.076 129.55,220.16 157.5,220.16Z" style="fill:rgb(31,31,31);"/>
        </g>
    </g>
</svg>
