<?xml version="1.0" encoding="UTF-8" standalone="no"?>
<!DOCTYPE svg PUBLIC "-//W3C//DTD SVG 1.1//EN" "http://www.w3.org/Graphics/SVG/1.1/DTD/svg11.dtd">
<svg width="100%" height="100%" viewBox="0 0 11 20" version="1.1" xmlns="http://www.w3.org/2000/svg" xmlns:xlink="http://www.w3.org/1999/xlink" xml:space="preserve" xmlns:serif="http://www.serif.com/" style="fill-rule:evenodd;clip-rule:evenodd;stroke-linejoin:round;stroke-miterlimit:2;">
    <g transform="matrix(1,0,0,1,-605.237,-597.106)">
        <g transform="matrix(0.025,0,0,0.025,598.237,619.106)">
            <path d="M393,-160L607,-160L636,-477C629.333,-483 623.5,-489.667 618.5,-497C613.5,-504.333 609.333,-512 606,-520L394,-520C390.667,-512 386.667,-504.333 382,-497C377.333,-489.667 371.333,-483 364,-477L393,-160ZM382,-680L371,-636C375.667,-630.667 379.833,-625 383.5,-619C387.167,-613 390.333,-606.667 393,-600L607,-600C609.667,-606.667 612.667,-613 616,-619C619.333,-625 623.667,-630.667 629,-636L618,-680L382,-680ZM320,-80L280,-520L299,-530C304.333,-533.333 309,-537.333 313,-542C317,-546.667 319,-552.333 319,-559C319,-565 317.667,-570.667 315,-576C312.333,-581.333 308.333,-585.333 303,-588L280,-600L320,-760L460,-760L460,-800L400,-800L400,-880L600,-880L600,-800L540,-800L540,-760L680,-760L719,-602L696,-590C690.667,-587.333 686.667,-583.333 684,-578C681.333,-572.667 680,-567 680,-561C680,-554.333 682,-548.5 686,-543.5C690,-538.5 694.667,-534.333 700,-531L719,-522L680,-80L320,-80Z" style="fill:rgb(31,31,31);fill-rule:nonzero;"/>
        </g>
    </g>
</svg>
