<?xml version="1.0" encoding="UTF-8" standalone="no"?>
<!DOCTYPE svg PUBLIC "-//W3C//DTD SVG 1.1//EN" "http://www.w3.org/Graphics/SVG/1.1/DTD/svg11.dtd">
<svg width="100%" height="100%" viewBox="0 0 262 452" version="1.1" xmlns="http://www.w3.org/2000/svg" xmlns:xlink="http://www.w3.org/1999/xlink" xml:space="preserve" xmlns:serif="http://www.serif.com/" style="fill-rule:evenodd;clip-rule:evenodd;stroke-linejoin:round;stroke-miterlimit:2;">
    <g transform="matrix(1,0,0,1,-409.454,-314)">
        <g transform="matrix(0.525,0,0,0.525,277.504,792)">
            <path d="M288.419,-560.271C288.357,-560.581 288.259,-560.878 288.109,-561.158C288.023,-561.321 287.903,-561.454 287.765,-561.571C275.762,-567.975 266.612,-577.53 260.484,-590.397C253.933,-604.155 252.655,-618.245 256.49,-632.62L282.306,-736.872C286.037,-753.768 294.743,-766.952 308.075,-776.647C320.674,-785.81 334.964,-790.476 351,-790.476L371.041,-790.476C370.057,-793.473 369.524,-796.674 369.524,-800L369.524,-880C369.524,-896.832 383.168,-910.476 400,-910.476L600,-910.476C616.832,-910.476 630.476,-896.832 630.476,-880L630.476,-800C630.476,-796.674 629.943,-793.473 628.959,-790.476L649,-790.476C665.393,-790.476 679.676,-785.609 691.97,-776.242C704.548,-766.658 712.953,-753.688 716.652,-737.062L743.462,-632.797C747.354,-618.339 746.089,-604.201 739.516,-590.397C733.118,-576.962 723.425,-567.139 710.629,-560.741C710.584,-560.718 710.535,-560.703 710.486,-560.689C710.499,-560.433 710.525,-560.148 710.547,-559.929C711.67,-558.617 713.129,-557.57 714.801,-556.641C725.743,-550.562 734.189,-542.287 740.268,-531.952C746.906,-520.668 749.635,-508.406 748.342,-495.145L717.354,-150.273L717.334,-150.064C714.582,-121.62 702.653,-97.763 681.549,-78.494C660.383,-59.168 635.528,-49.524 607,-49.524L393,-49.524C364.569,-49.524 339.816,-58.948 318.722,-77.749C297.483,-96.68 285.436,-120.437 282.666,-149.064L282.645,-149.28L251.662,-495.097C250.4,-507.953 252.777,-519.826 258.566,-530.759C264.145,-541.299 272.327,-549.841 283.33,-556.151C285.191,-557.359 286.891,-558.73 288.419,-560.271ZM587.981,-489.524L412.143,-489.524C410.523,-486.546 408.82,-483.59 407.033,-480.654C403.632,-475.066 399.844,-469.927 395.68,-465.227L420.815,-190.476L579.185,-190.476L604.371,-465.78C600.294,-470.478 596.601,-475.432 593.288,-480.638C591.431,-483.556 589.663,-486.518 587.981,-489.524ZM405.795,-649.524L404.171,-643.03C406.034,-640.374 407.812,-637.661 409.505,-634.892C410.395,-633.436 411.261,-631.964 412.103,-630.476L587.896,-630.476C588.739,-631.964 589.605,-633.436 590.495,-634.892C592.188,-637.662 593.966,-640.374 595.829,-643.029L594.205,-649.524L405.795,-649.524Z"/>
        </g>
    </g>
</svg>
