<?xml version="1.0" encoding="UTF-8" standalone="no"?>
<!DOCTYPE svg PUBLIC "-//W3C//DTD SVG 1.1//EN" "http://www.w3.org/Graphics/SVG/1.1/DTD/svg11.dtd">
<svg width="100%" height="100%" viewBox="0 0 19 19" version="1.1" xmlns="http://www.w3.org/2000/svg" xmlns:xlink="http://www.w3.org/1999/xlink" xml:space="preserve" xmlns:serif="http://www.serif.com/" style="fill-rule:evenodd;clip-rule:evenodd;stroke-linejoin:round;stroke-miterlimit:2;">
    <g transform="matrix(1,0,0,1,-731.975,-519.098)">
        <g transform="matrix(0.025,0,0,0.025,728.975,540.098)">
            <path d="M715,-103L444,-376C430.667,-370.667 417.167,-366.667 403.5,-364C389.833,-361.333 375.333,-360 360,-360C293.333,-360 236.667,-383.333 190,-430C143.333,-476.667 120,-533.333 120,-600C120,-624 123.333,-646.833 130,-668.5C136.667,-690.167 146,-710.667 158,-730L304,-584L376,-656L230,-802C249.333,-814 269.833,-823.333 291.5,-830C313.167,-836.667 336,-840 360,-840C426.667,-840 483.333,-816.667 530,-770C576.667,-723.333 600,-666.667 600,-600C600,-584.667 598.667,-570.167 596,-556.5C593.333,-542.833 589.333,-529.333 584,-516L857,-245L715,-103ZM715,-217L742,-244L486,-500C498,-513.333 506.667,-528.833 512,-546.5C517.333,-564.167 520,-582 520,-600C520,-640 507.167,-674.833 481.5,-704.5C455.833,-734.167 424,-752 386,-758L488,-656L304,-472L202,-574C208,-536 225.833,-504.167 255.5,-478.5C285.167,-452.833 320,-440 360,-440C377.333,-440 394.667,-442.667 412,-448C429.333,-453.333 445,-461.667 459,-473L715,-217Z" style="fill:rgb(31,31,31);fill-rule:nonzero;"/>
        </g>
    </g>
</svg>
