<?xml version="1.0" encoding="UTF-8" standalone="no"?>
<!DOCTYPE svg PUBLIC "-//W3C//DTD SVG 1.1//EN" "http://www.w3.org/Graphics/SVG/1.1/DTD/svg11.dtd">
<svg width="100%" height="100%" viewBox="0 0 406 426" version="1.1" xmlns="http://www.w3.org/2000/svg" xmlns:xlink="http://www.w3.org/1999/xlink" xml:space="preserve" xmlns:serif="http://www.serif.com/" style="fill-rule:evenodd;clip-rule:evenodd;stroke-linejoin:round;stroke-miterlimit:2;">
    <g transform="matrix(1,0,0,1,-337,-327)">
        <g transform="matrix(0.47619,0,0,0.47619,311.905,778.095)">
            <path d="M754,-53.7C745.398,-53.7 737.344,-55.102 729.818,-57.79C721.553,-60.742 713.781,-65.611 706.696,-72.696L502.696,-276.696C495.611,-283.781 490.742,-291.553 487.79,-299.818C485.102,-307.344 483.7,-315.398 483.7,-324C483.7,-332.602 485.102,-340.656 487.79,-348.182C490.742,-356.447 495.611,-364.219 502.696,-371.304L587.696,-456.304C594.781,-463.389 602.553,-468.258 610.818,-471.21C618.344,-473.898 626.398,-475.3 635,-475.3C643.602,-475.3 651.656,-473.898 659.182,-471.21C667.447,-468.258 675.219,-463.389 682.304,-456.304L886.304,-252.304C893.389,-245.219 898.258,-237.447 901.21,-229.182C903.898,-221.656 905.3,-213.602 905.3,-205C905.3,-196.398 903.898,-188.344 901.21,-180.818C898.258,-172.553 893.389,-164.781 886.304,-157.696L801.304,-72.696C794.219,-65.611 786.447,-60.742 778.182,-57.79C770.656,-55.102 762.602,-53.7 754,-53.7ZM205,-52.7C196.179,-52.7 187.631,-54.345 179.361,-57.653C170.978,-61.006 163.402,-65.99 156.696,-72.696L72.696,-156.696C65.99,-163.402 61.006,-170.978 57.653,-179.361C54.345,-187.631 52.7,-196.179 52.7,-205C52.7,-214.161 54.472,-222.738 57.907,-230.754C61.213,-238.468 66.084,-245.692 72.696,-252.304L284.696,-464.304C289.816,-469.424 296.76,-472.3 304,-472.3L377.692,-472.3L384.392,-479L246.692,-616.7L201,-616.7C193.76,-616.7 186.816,-619.576 181.696,-624.696L60.696,-745.696C50.035,-756.357 50.035,-773.643 60.696,-784.304L173.696,-897.304C184.357,-907.965 201.643,-907.965 212.304,-897.304L333.304,-776.304C338.424,-771.184 341.3,-764.24 341.3,-757L341.3,-711.308L479,-573.608L556.392,-651L532.696,-674.696C522.035,-685.357 522.035,-702.643 532.696,-713.304L542.092,-722.7L495,-722.7C487.76,-722.7 480.816,-725.576 475.696,-730.696L447.696,-758.696C437.035,-769.357 437.035,-786.643 447.696,-797.304L589.696,-939.304C600.357,-949.965 617.643,-949.965 628.304,-939.304L656.304,-911.304C661.424,-906.184 664.3,-899.24 664.3,-892L664.3,-844.908L673.696,-854.304C684.357,-864.965 701.643,-864.965 712.304,-854.304L854.304,-712.304C868.211,-698.397 878.82,-682.63 886.183,-665.042C893.574,-647.386 897.3,-628.709 897.3,-609C897.3,-589.404 893.616,-570.626 886.267,-552.663C878.889,-534.627 868.241,-518.633 854.304,-504.696C843.643,-494.035 826.357,-494.035 815.696,-504.696L750,-570.392L713.304,-533.696C702.643,-523.035 685.357,-523.035 674.696,-533.696L652,-556.392L472.3,-376.692L472.3,-304C472.3,-296.76 469.424,-289.816 464.304,-284.696L252.304,-72.696C245.692,-66.084 238.468,-61.213 230.754,-57.907C222.738,-54.472 214.161,-52.7 205,-52.7Z"/>
        </g>
    </g>
</svg>
